<?xml version="1.0" encoding="utf-8"?>
<!-- Generator: Adobe Illustrator 24.1.1, SVG Export Plug-In . SVG Version: 6.00 Build 0)  -->
<svg version="1.1"
	 id="SVGRoot" inkscape:version="0.92.3 (unknown)" sodipodi:docname="logo.svg" xmlns:cc="http://creativecommons.org/ns#" xmlns:dc="http://purl.org/dc/elements/1.1/" xmlns:inkscape="http://www.inkscape.org/namespaces/inkscape" xmlns:rdf="http://www.w3.org/1999/02/22-rdf-syntax-ns#" xmlns:sodipodi="http://sodipodi.sourceforge.net/DTD/sodipodi-0.dtd" xmlns:svg="http://www.w3.org/2000/svg"
	 xmlns="http://www.w3.org/2000/svg" xmlns:xlink="http://www.w3.org/1999/xlink" x="0px" y="0px" viewBox="0 0 250 160"
	 style="enable-background:new 0 0 250 160;" xml:space="preserve">
<style type="text/css">
	.st0{fill-rule:evenodd;clip-rule:evenodd;fill:#1D7A6B;}
	.st1{fill-rule:evenodd;clip-rule:evenodd;fill:#1C7A66;}
	.st2{fill-rule:evenodd;clip-rule:evenodd;fill:#166E76;}
	.st3{fill-rule:evenodd;clip-rule:evenodd;fill:#3C8594;}
	.st4{fill-rule:evenodd;clip-rule:evenodd;fill:#136265;}
	.st5{fill-rule:evenodd;clip-rule:evenodd;fill:#17877C;}
	.st6{fill-rule:evenodd;clip-rule:evenodd;fill:url(#SVGID_1_);stroke:#04242D;stroke-width:4;stroke-miterlimit:10;}
	.st7{fill-rule:evenodd;clip-rule:evenodd;fill:url(#SVGID_2_);stroke:#000000;stroke-width:3;stroke-miterlimit:10;}
	.st8{fill-rule:evenodd;clip-rule:evenodd;fill:url(#SVGID_3_);stroke:#000000;stroke-width:3;stroke-miterlimit:10;}
</style>
<sodipodi:namedview  bordercolor="#666666" borderopacity="1.0" id="base" inkscape:current-layer="layer1" inkscape:cx="125" inkscape:cy="80" inkscape:document-units="px" inkscape:pageopacity="0.0" inkscape:pageshadow="2" inkscape:window-height="713" inkscape:window-maximized="1" inkscape:window-width="1299" inkscape:window-x="67" inkscape:window-y="27" inkscape:zoom="2.1496046" pagecolor="#ffffff" showgrid="false">
	</sodipodi:namedview>
<g>
	<path class="st0" d="M70.2,106.2c-0.7,3.1-1.7,6-3.2,8.7c0-2,0.4-3.9,1.4-5.7c-0.1-0.6-0.2-1.1-0.5-1.6
		C68.8,107.5,69.5,107.1,70.2,106.2z"/>
</g>
<g>
	<path class="st1" d="M65.7,116.7c0.3,0,0.6,0,0.9,0c-0.5,2.3-1.2,4.6-2.1,6.8c-0.2,0.3-0.4,0.4-0.7,0.5
		C64,121.1,64.6,118.6,65.7,116.7z"/>
</g>
<g>
	<path class="st2" d="M149,127.2c0.5,0.2,0.8,0.5,0.9,0.9c-5.8,0.4-11.5,0.6-17.3,0.5c-14.6-0.3-29.2-0.6-43.7-0.9
		C108.9,127.7,129,127.6,149,127.2z"/>
</g>
<g>
	<path class="st3" d="M180,126.7c0.2,0,0.3,0,0.5,0c7.1,0.4,14.2,0.6,21.4,0.7c7.3,1.1,11.6,5.2,12.8,12.5c0.1,1.7,0,3.3-0.2,5
		c-0.2,1.4-0.7,2.6-1.6,3.6c1.5-3.9,1.6-7.9,0.5-11.8c-2-2-3.9-4.1-5.5-6.4c-1.2-0.9-2.6-1.6-4.1-2.1c-8-0.4-15.9-0.3-23.7,0.2
		c-5.2-0.1-10.3-0.1-15.5,0c-3.4-0.2-6.7-0.5-10-0.9C163,127.3,171.5,127,180,126.7z"/>
</g>
<g>
	<path class="st4" d="M70.7,154.9c1.1-0.4,2.3-0.6,3.6-0.5c43.7,0,87.5,0,131.2,0c0.2,0,0.3,0,0.5,0c-1.3,0.6-2.8,0.9-4.3,0.9
		C158,154.9,114.3,154.8,70.7,154.9z"/>
</g>
<g>
	<path class="st5" d="M38.3,150.8c0.7-0.3,1.5-0.4,2.3-0.5c-0.2,0.6,0.1,1.1,0.9,1.6c1,1,2.1,1.7,3.4,2.1c9.7,0,19.5,0,29.4,0
		c0,0.2,0,0.3,0,0.5c-1.3-0.1-2.5,0-3.6,0.5c-8.8,0.1-17.6,0-26.4-0.2C42.1,153.7,40.1,152.4,38.3,150.8z"/>
</g>
<linearGradient id="SVGID_1_" gradientUnits="userSpaceOnUse" x1="34.2269" y1="80" x2="214.6405" y2="80">
	<stop  offset="0" style="stop-color:#00F4FF"/>
	<stop  offset="0.8034" style="stop-color:#6F2AFF"/>
</linearGradient>
<polygon class="st6" points="94.8,38.8 62.9,126.9 149,127.2 201.9,127.4 207.3,129 212.8,134.2 214.6,139.9 214.4,144.9 
	212.3,150.4 203.9,155.4 44.2,154.7 38.3,150.8 34.2,144.9 34.5,124.9 77.7,4.6 "/>
<linearGradient id="SVGID_2_" gradientUnits="userSpaceOnUse" x1="96.8705" y1="69.38" x2="180.4713" y2="69.38">
	<stop  offset="0.2347" style="stop-color:#D83FFF"/>
	<stop  offset="0.7637" style="stop-color:#55ABFF"/>
</linearGradient>
<polyline class="st7" points="149,126.7 180.5,126.7 132.8,32.1 125.9,18.4 119.4,12.7 108.6,11.6 99.4,15.9 96.9,23.7 100.7,29.2 
	149.9,127.2 "/>
<linearGradient id="SVGID_3_" gradientUnits="userSpaceOnUse" x1="133.6675" y1="45.3454" x2="215.0961" y2="45.3454">
	<stop  offset="0.2347" style="stop-color:#D83FFF"/>
	<stop  offset="0.7637" style="stop-color:#55ABFF"/>
</linearGradient>
<polygon class="st8" points="133.7,32.1 146.1,58.4 204.2,58.6 208.2,58.4 212,55.6 215,50.4 215.1,47.2 214.2,42.2 210.1,36.5 
	208.7,34.9 202.8,32.4 "/>
</svg>
