<?xml version="1.0" encoding="utf-8"?>
<!-- Generator: Adobe Illustrator 24.1.1, SVG Export Plug-In . SVG Version: 6.00 Build 0)  -->
<svg version="1.1"
	 id="SVGRoot" inkscape:version="0.92.3 (unknown)" sodipodi:docname="man.svg" xmlns:cc="http://creativecommons.org/ns#" xmlns:dc="http://purl.org/dc/elements/1.1/" xmlns:inkscape="http://www.inkscape.org/namespaces/inkscape" xmlns:rdf="http://www.w3.org/1999/02/22-rdf-syntax-ns#" xmlns:sodipodi="http://sodipodi.sourceforge.net/DTD/sodipodi-0.dtd" xmlns:svg="http://www.w3.org/2000/svg"
	 xmlns="http://www.w3.org/2000/svg" xmlns:xlink="http://www.w3.org/1999/xlink" x="0px" y="0px" viewBox="0 0 250 250"
	 style="enable-background:new 0 0 250 250;" xml:space="preserve">
<style type="text/css">
	.st0{fill:#E6E6E6;}
	.st1{opacity:0.15;}
	.st2{fill-rule:evenodd;clip-rule:evenodd;fill:#808080;}
	.st3{fill:#808080;}
	.st4{fill-rule:evenodd;clip-rule:evenodd;fill:#744536;}
	.st5{fill-rule:evenodd;clip-rule:evenodd;fill:#96635A;}
	.st6{fill-rule:evenodd;clip-rule:evenodd;fill:#929497;}
	.st7{fill-rule:evenodd;clip-rule:evenodd;fill:#363740;}
	.st8{fill-rule:evenodd;clip-rule:evenodd;fill:#383B44;}
	.st9{fill-rule:evenodd;clip-rule:evenodd;fill:#393947;}
	.st10{fill-rule:evenodd;clip-rule:evenodd;fill:#282637;}
	.st11{fill-rule:evenodd;clip-rule:evenodd;fill:#2A2B32;}
	.st12{fill-rule:evenodd;clip-rule:evenodd;fill:#252630;}
	.st13{fill-rule:evenodd;clip-rule:evenodd;fill:#3C3837;}
	.st14{fill-rule:evenodd;clip-rule:evenodd;fill:#404041;}
	.st15{fill-rule:evenodd;clip-rule:evenodd;fill:#EBA17A;}
	.st16{fill-rule:evenodd;clip-rule:evenodd;fill:#4457A7;}
	.st17{fill-rule:evenodd;clip-rule:evenodd;fill:url(#SVGID_1_);}
	.st18{fill-rule:evenodd;clip-rule:evenodd;fill:#231F20;}
	.st19{fill-rule:evenodd;clip-rule:evenodd;fill:#F19C71;}
	.st20{fill-rule:evenodd;clip-rule:evenodd;fill:#6D6E70;}
	.st21{fill-rule:evenodd;clip-rule:evenodd;fill:#ADAEB1;}
	.st22{fill-rule:evenodd;clip-rule:evenodd;fill:#A6A8AB;}
	.st23{fill-rule:evenodd;clip-rule:evenodd;fill:#808188;}
	.st24{fill-rule:evenodd;clip-rule:evenodd;fill:#808082;}
	.st25{fill-rule:evenodd;clip-rule:evenodd;fill:#BCBDC0;}
	.st26{fill-rule:evenodd;clip-rule:evenodd;fill:#A9ABAE;}
	.st27{fill-rule:evenodd;clip-rule:evenodd;fill:#C7C9CE;}
	.st28{fill-rule:evenodd;clip-rule:evenodd;fill:#90503B;}
	.st29{fill-rule:evenodd;clip-rule:evenodd;fill:#6A3823;}
	.st30{fill-rule:evenodd;clip-rule:evenodd;fill:#A15641;}
	.st31{fill-rule:evenodd;clip-rule:evenodd;fill:#190C0B;}
	.st32{fill-rule:evenodd;clip-rule:evenodd;fill:#FA8AFF;}
	.st33{fill-rule:evenodd;clip-rule:evenodd;fill:#2D0AFF;}
	.st34{fill-rule:evenodd;clip-rule:evenodd;fill:#EDC9AF;}
	.st35{fill-rule:evenodd;clip-rule:evenodd;fill:#435CAA;}
	.st36{fill-rule:evenodd;clip-rule:evenodd;fill:#E1E3E7;}
	.st37{fill-rule:evenodd;clip-rule:evenodd;fill:#A1A2A9;}
	.st38{fill-rule:evenodd;clip-rule:evenodd;fill:#3B3527;}
	.st39{fill-rule:evenodd;clip-rule:evenodd;fill:#694D59;}
	.st40{fill-rule:evenodd;clip-rule:evenodd;fill:#5F4952;}
	.st41{fill-rule:evenodd;clip-rule:evenodd;fill:#B5B7DC;}
	.st42{fill-rule:evenodd;clip-rule:evenodd;fill:#AEABCF;}
	.st43{fill-rule:evenodd;clip-rule:evenodd;fill:#4D4B6B;}
	.st44{fill-rule:evenodd;clip-rule:evenodd;fill:#404E57;}
	.st45{fill-rule:evenodd;clip-rule:evenodd;fill:#313D48;}
	.st46{fill-rule:evenodd;clip-rule:evenodd;fill:#FACAB8;}
	.st47{fill-rule:evenodd;clip-rule:evenodd;fill:#D4A99F;}
	.st48{fill-rule:evenodd;clip-rule:evenodd;fill:#373839;}
	.st49{fill-rule:evenodd;clip-rule:evenodd;fill:#7A98A5;}
	.st50{fill-rule:evenodd;clip-rule:evenodd;fill:#96B8CA;}
	.st51{fill-rule:evenodd;clip-rule:evenodd;fill:#DFE0E2;}
	.st52{fill-rule:evenodd;clip-rule:evenodd;fill:#79654D;}
	.st53{fill-rule:evenodd;clip-rule:evenodd;fill:#9DCB45;}
	.st54{fill-rule:evenodd;clip-rule:evenodd;fill:#C5C8CB;}
	.st55{fill-rule:evenodd;clip-rule:evenodd;fill:#52A07A;}
	.st56{fill-rule:evenodd;clip-rule:evenodd;fill:#F69F89;}
	.st57{fill-rule:evenodd;clip-rule:evenodd;fill:#F37E69;}
	.st58{fill-rule:evenodd;clip-rule:evenodd;fill:#C66D6E;}
	.st59{fill-rule:evenodd;clip-rule:evenodd;fill:#6386C4;}
	.st60{fill-rule:evenodd;clip-rule:evenodd;fill:#6F3F2D;}
	.st61{fill-rule:evenodd;clip-rule:evenodd;fill:#E3B38D;}
	.st62{fill-rule:evenodd;clip-rule:evenodd;fill:#CC9B76;}
	.st63{fill-rule:evenodd;clip-rule:evenodd;fill:#FFFFFF;}
	.st64{fill-rule:evenodd;clip-rule:evenodd;fill:#4F4C4C;}
	.st65{fill-rule:evenodd;clip-rule:evenodd;fill:#E3A77F;}
	.st66{fill-rule:evenodd;clip-rule:evenodd;fill:#EDB58E;}
	.st67{fill:#3B2515;}
	.st68{fill-rule:evenodd;clip-rule:evenodd;fill:#1D7A6B;}
	.st69{fill-rule:evenodd;clip-rule:evenodd;fill:#1C7A66;}
	.st70{fill-rule:evenodd;clip-rule:evenodd;fill:#17877C;}
</style>
<sodipodi:namedview  bordercolor="#666666" borderopacity="1.0" id="base" inkscape:current-layer="layer1" inkscape:cx="125" inkscape:cy="125" inkscape:document-units="px" inkscape:pageopacity="0.0" inkscape:pageshadow="2" inkscape:window-height="713" inkscape:window-maximized="1" inkscape:window-width="1299" inkscape:window-x="67" inkscape:window-y="27" inkscape:zoom="2.0149341" pagecolor="#ffffff" showgrid="false">
	</sodipodi:namedview>
<path class="st0" d="M256.4,248.8c0,0.6-54.4,1.1-121.5,1.1s-121.6-0.5-121.6-1.1c0-0.6,54.4-1.1,121.6-1.1
	C202,247.7,256.4,248.1,256.4,248.8z"/>
<g class="st1">
	<g>
		<rect x="147.7" y="158.4" class="st2" width="8.8" height="86.9"/>
	</g>
	<g>
		<rect x="147.7" y="160.2" class="st2" width="4.4" height="85.1"/>
	</g>
	<g>
		<rect x="83.5" y="201.3" class="st2" width="5.2" height="32.2"/>
	</g>
	<g>
		<rect x="80.2" y="190.2" class="st2" width="12" height="14"/>
	</g>
	<g>
		<rect x="80.2" y="190.4" class="st2" width="4.7" height="13.8"/>
	</g>
	<g>
		<path class="st2" d="M87,178.8c19.1,0,34.6,5,34.6,11.3c0,0.6-0.2,1.2-0.4,1.8H52.9c-0.4-0.6-0.4-1.2-0.4-1.8
			C52.5,183.9,67.9,178.8,87,178.8z"/>
	</g>
	<g>
		<path class="st2" d="M51.3,187.8h69.5c0.8,0,1.4,0.6,1.4,1.4v1.8c0,0.8-0.6,1.4-1.4,1.4H51.3c-0.8,0-1.4-0.6-1.4-1.4v-1.8
			C50,188.4,50.6,187.8,51.3,187.8z"/>
	</g>
	<g>
		<g>
			<rect x="82.7" y="222.2" class="st2" width="6.9" height="15.3"/>
		</g>
		<g>
			<polygon class="st2" points="81.2,234.5 55.4,241.2 55.2,244.1 86.1,240.2 117.1,244.1 116.8,241.2 90.9,234.5 			"/>
		</g>
		<g>
			<path class="st2" d="M56.2,245.3c1.4,0,2.5-1.1,2.5-2.5c0-1.4-1.1-2.5-2.5-2.5c-1.3,0-2.5,1.1-2.5,2.5S54.8,245.3,56.2,245.3z"/>
		</g>
		<g>
			<path class="st2" d="M116.1,245.3c1.4,0,2.5-1.1,2.5-2.5c0-1.4-1.1-2.5-2.5-2.5c-1.4,0-2.5,1.1-2.5,2.5
				C113.6,244.1,114.8,245.3,116.1,245.3z"/>
		</g>
	</g>
	<g>
		<path class="st2" d="M46.5,111.9h43.7c2.3,0,4,1.8,4,4v22c0,2.3-1.8,4-4,4H46.5c-2.3,0-4-1.8-4-4v-22
			C42.4,113.8,44.3,111.9,46.5,111.9z"/>
	</g>
	<g>
		<path class="st2" d="M49.5,111.9h43.7c2.3,0,4,1.8,4,4v22c0,2.3-1.8,4-4,4H49.5c-2.3,0-4-1.8-4-4v-22
			C45.5,113.8,47.3,111.9,49.5,111.9z"/>
	</g>
	<g>
		<path class="st2" d="M124.5,231.6c-0.5,1.1-1.9,4.1-1.9,4.1l-0.1,9.5h5.7l0.1-1.1c0,0,2.8,1.1,4.7,1.1c1.8,0.1,13.7,0.2,14.9-0.7
			c1.1-0.8-2.6-1.8-2.8-1.9c-0.3-0.2-9.3-2.6-11.5-4.8c-2.2-2.4-2.4-5-2.4-5L124.5,231.6z"/>
	</g>
	<g>
		<path class="st2" d="M94.6,163.1l35.9,12.6c5.9,1.8,8.8,5.9,8.4,11.6c-1,13.7-4.6,34.3-6.7,44.4c-0.3,1.1,1.7,3.2,1.5,4
			c-0.2,0.9-10.9,2-11.8,1.9l1.5-48.7c-6.3,0-25.4-4.3-32.2-6.1C85.3,182.1,90.3,164.2,94.6,163.1z"/>
	</g>
	<g>
		<path class="st2" d="M99.9,168.6c-6.6-4-6.7-8-7.7-8c-1,0-31.9,0.8-31.9,0.8s-3.3,6.4-3.3,12.4c0,6.1,5.1,10.5,5.9,10.6
			c0.9,0.2,21.4,3.8,25,1.9C91.5,184.6,99.9,168.6,99.9,168.6z"/>
	</g>
	<g>
		<path class="st2" d="M62.8,166l44.4,10.8c5.9,1.8,8.8,5.9,8.4,11.6c-1.2,16.3-4,27.9-6.2,47.6L99.3,236l1.2-47.2
			c-6.3,0-30.1-2.4-36.9-4.1C51.4,181.7,55.8,162.9,62.8,166z"/>
	</g>
	<g>
		<path class="st2" d="M148.1,138c0.2,0,1,0.1,1,0.1s6.6,2.7,6.2,3.3c-0.4,0.5-0.9,0.9-2.8,0.4C150.5,141.3,148.1,138,148.1,138z"/>
	</g>
	<g>
		<path class="st2" d="M96.7,98.1c-6.5,0.4-10.7,8.1-7.5,12.9l16.7,24.7l30.1,8.5c2.5,0.7,6-5,3.4-5.9l-27.4-9.2
			C109.8,125.1,103.2,112.5,96.7,98.1z"/>
	</g>
	<g>
		<path class="st2" d="M74.6,90.1c-1.1,0.2-5.6,1.7-6.9,1.7c-1.1,0-17.4,3.9-17.4,3.9c3.9,17,4.9,64.4,4.9,81.2
			c16-10.1,44.5-5.9,40.2-15c-3.7-2.5,5.2-58.9,1.1-63.7c-2-2.5-9.2-2.8-13.6-4C78.9,92.8,74.6,90.1,74.6,90.1z"/>
	</g>
	<g>
		<path class="st2" d="M68.3,95.9l-0.4,26.1c0,0,10.3,0.3,10.1-0.1s-0.7-22.4-0.7-22.4L68.3,95.9z"/>
	</g>
	<g>
		<path class="st2" d="M70,120.1c-0.4,0.5-2.2,1.9-2.2,1.9v3.8l0.9,0.2l0.2-3.3H70l-0.2,3.4l1.2-0.1c0,0-0.1-3.4,0.1-3.4
			s0.8,0.1,0.8,0.1l-0.1,3.3l0.9,0.1l0.2-3.6l1,0.1l-0.1,3.7l1-0.1l0.1-3.6l0.9,0.1v3.5l1-0.1v-3.4l0.5-0.1l0.2,3.4
			c0,0,0.9,0.1,0.9,0c0-0.1-0.4-4.1-0.4-4.1s-3-1.6-3.2-1.7C74.5,120.3,70,120.1,70,120.1z"/>
	</g>
	<g>
		<path class="st2" d="M71.8,79.4c0.2,1.6-0.2,8.8-1.1,10.3c-1,1.5-2.6,2.1-5.4,2.6c-2.7,0.4,4.7,8.5,12.9,8.9
			c11.5,0.5,7.5-6.2,1-10.2c-1.9-1.2-1.6-10.5-1.6-10.5L71.8,79.4z"/>
	</g>
	<g>
		<path class="st2" d="M106.4,146.9c4,0,7.4-1.3,7.4-2.9s-3.3-2.9-7.4-2.9c-4,0-7.4,1.3-7.4,2.9C99,145.6,102.4,146.9,106.4,146.9z"
			/>
	</g>
	<g>
		<path class="st2" d="M136.5,144.6c2.4,0.1,7-0.1,7.2-1.1c0.2-1-4-1.5-3.6-2c1.6-1.8,2.4-1.2,3.4-0.7c0.9,0.4,1.7,1.9,2.6,2.3
			c1.3,0.5,2.5,0.4,2.2-0.1c-0.3-0.4-2.9-4-2.9-4s3.5,3.8,4.4,3.9c0.9,0.1,2.4,0.1,2.3-0.4c-0.1-0.4-4.2-4.1-4.2-4.1s4.8,4,5.5,4
			c0.7,0.1,2.6,0.4,2.3-0.4c-0.4-0.6-4-3.7-5.5-4.5c-3.3-1.8-14.2,0.2-15.3,1.8C133.6,141,134,144.6,136.5,144.6z"/>
	</g>
	<g>
		<path class="st2" d="M101.5,231.7c-0.5,1.1-1.9,4.1-1.9,4.1v9.4h5.4l0.4-1.1c0,0,2.8,1.1,4.7,1.1s13.7,0.2,14.9-0.7
			c1.1-0.8-2.6-1.8-2.8-1.9c-0.3-0.2-9.3-2.6-11.5-4.8c-2.2-2.4-2.4-5-2.4-5L101.5,231.7z"/>
	</g>
	<g>
		<path class="st2" d="M85.4,205h0.2c0.5,0,0.9,0.4,0.9,0.9v14.7c0,0.5-0.4,0.9-0.9,0.9h-0.2c-0.5,0-0.9-0.4-0.9-0.9v-14.7
			C84.5,205.4,84.9,205,85.4,205z"/>
	</g>
	<g>
		<rect x="82.7" y="222.2" class="st2" width="3.2" height="12.1"/>
	</g>
	<g>
		<g>
			<g>
				<rect x="120.8" y="143" class="st2" width="1.8" height="0.9"/>
			</g>
			<g>
				<rect x="123.4" y="143" class="st2" width="1.8" height="0.9"/>
			</g>
			<g>
				<rect x="126.1" y="142.9" class="st2" width="1.8" height="0.9"/>
			</g>
			<g>
				<rect x="128.8" y="142.9" class="st2" width="1.8" height="0.9"/>
			</g>
			<g>
				<rect x="131.4" y="142.9" class="st2" width="1.8" height="0.9"/>
			</g>
			<g>
				<rect x="134.1" y="142.9" class="st2" width="1.8" height="0.9"/>
			</g>
			<g>
				<rect x="136.8" y="142.9" class="st2" width="1.8" height="0.9"/>
			</g>
			<g>
				<rect x="139.4" y="142.8" class="st2" width="1.8" height="0.9"/>
			</g>
			<g>
				<rect x="142.1" y="142.8" class="st2" width="1.8" height="0.9"/>
			</g>
			<g>
				<rect x="144.8" y="142.8" class="st2" width="1.8" height="0.9"/>
			</g>
			<g>
				<rect x="147.4" y="142.8" class="st2" width="1.8" height="0.9"/>
			</g>
			<g>
				<rect x="150.2" y="142.8" class="st2" width="1.8" height="0.9"/>
			</g>
			<g>
				<rect x="152.8" y="142.8" class="st2" width="1.8" height="0.9"/>
			</g>
			<g>
				<rect x="155.4" y="142.8" class="st2" width="1.8" height="0.9"/>
			</g>
			<g>
				<rect x="158.2" y="142.8" class="st2" width="1.8" height="0.9"/>
			</g>
			<g>
				<rect x="160.8" y="142.8" class="st2" width="1.8" height="0.9"/>
			</g>
			<g>
				<rect x="163.4" y="142.8" class="st2" width="1.8" height="0.9"/>
			</g>
			<g>
				<rect x="166.2" y="142.8" class="st2" width="1.8" height="0.9"/>
			</g>
		</g>
		<g>
			<rect x="118.6" y="143.4" class="st2" width="51.4" height="1.3"/>
		</g>
	</g>
	<g>
		<g>
			<path class="st2" d="M180,87.1h-65c-2,0-3.7,1.7-3.7,3.7v40.8c0,2,1.7,3.7,3.7,3.7h65c2,0,3.7-1.7,3.7-3.7V90.8
				C183.7,88.8,182,87.1,180,87.1z"/>
		</g>
		<g>
			<path class="st2" d="M181.8,87.1h-65c-2,0-3.7,1.7-3.7,3.7v40.8c0,2,1.7,3.7,3.7,3.7h65c2,0,3.7-1.7,3.7-3.7V90.8
				C185.6,88.8,183.9,87.1,181.8,87.1z"/>
		</g>
		<g>
			<path class="st2" d="M134.8,98.6h30.1c1.2,0,2.3,1.1,2.3,2.3v21.2c0,1.2-1.1,2.3-2.3,2.3h-30.1c-1.2,0-2.3-1.1-2.3-2.3v-21.2
				C132.5,99.6,133.5,98.6,134.8,98.6z"/>
		</g>
		<g>
			<path class="st2" d="M136.2,98.6h30.1c1.2,0,2.3,1.1,2.3,2.3v21.2c0,1.2-1.1,2.3-2.3,2.3h-30.1c-1.2,0-2.3-1.1-2.3-2.3v-21.2
				C134,99.6,134.9,98.6,136.2,98.6z"/>
		</g>
		<g>
			<rect x="142.5" y="124.4" class="st2" width="14.6" height="20.4"/>
		</g>
		<g>
			<rect x="143.9" y="124.4" class="st2" width="14.6" height="20.4"/>
		</g>
		<g>
			<rect x="127.8" y="143.5" class="st2" width="16.2" height="1.2"/>
		</g>
	</g>
	<g>
		<rect x="41.6" y="157.6" class="st2" width="8.8" height="87.7"/>
	</g>
	<g>
		<rect x="221.7" y="158.4" class="st2" width="8.8" height="86.9"/>
	</g>
	<g>
		<rect x="37.8" y="149.2" class="st2" width="192.8" height="11"/>
	</g>
	<g>
		<rect x="105.4" y="157.6" class="st2" width="8.8" height="87.7"/>
	</g>
	<g>
		<rect x="105.4" y="160.2" class="st2" width="4.4" height="85.1"/>
	</g>
	<g>
		<rect x="37.8" y="149.2" class="st2" width="192.8" height="11"/>
	</g>
	<g>
		<rect x="37.8" y="149.2" class="st2" width="75.4" height="11"/>
	</g>
	<g>
		<rect x="34" y="144.8" class="st2" width="204.1" height="8.2"/>
	</g>
	<g>
		<path class="st2" d="M89.1,94.3c0.4,1.1,3.6,9.9-3.9,12.4C77.7,109.2,64.2,98,62,93.7c-2.3-4.3,6.1-4.9,6.1-4.9s2.3,5.7,9.9,6.4
			c7.7,0.7,5.9-2.6,7-2.9C86.2,92,89.1,94.3,89.1,94.3z"/>
	</g>
	<g>
		<path class="st2" d="M84.1,96.5c2.9,0,5.3,2.4,5.3,5.3c0,2.9-2.4,5.3-5.3,5.3c-2.9,0-5.3-2.4-5.3-5.3
			C78.8,98.8,81.1,96.5,84.1,96.5L84.1,96.5z M84.1,98c-2.1,0-3.8,1.8-3.8,3.8c0,2.1,1.7,3.8,3.8,3.8c2.1,0,3.8-1.7,3.8-3.8
			C87.8,99.7,86.2,98,84.1,98z"/>
	</g>
	<g>
		<path class="st2" d="M84.1,94.3h13.7v14c0,1.3-1.1,2.5-2.5,2.5h-8.8c-1.3,0-2.5-1.1-2.5-2.5C84.1,108.3,84.1,94.3,84.1,94.3z"/>
	</g>
	<g>
		<rect x="84.1" y="99.8" class="st2" width="13.7" height="2.3"/>
	</g>
	<g>
		<path class="st2" d="M78.7,99.1c0.5-0.2,0.4,1,0.4,1s3.2-0.4,3.8,0.6c0.6,1.1-0.4,2.5-0.4,2.5s1.1,0.5,0.8,1.4
			c-0.3,0.8-0.5,1.1-0.5,1.1s0.8,2.3,0.4,2.8c-0.4,0.5-0.5,0.8-0.5,0.8s0.3,1.1-0.1,1.8c-0.4,0.5-2.4,1.5-4.8,2
			c-2.4,0.5-4.8-0.9-5.5-2.2C70.1,106.5,75.2,100.5,78.7,99.1z"/>
	</g>
	<g>
		<path class="st2" d="M52.4,95.2c-19.3,1.3-5.5,50.7,2,51c7.1,0.4,22.5-29.7,24.6-33.5c0.1-0.2-7.2-4.7-7.3-4.5l-17.2,23.1
			C54.7,125.5,55.8,95.1,52.4,95.2z"/>
	</g>
	<g>
		<g>
			<rect x="193.3" y="135.2" class="st2" width="2.1" height="3.9"/>
		</g>
		<g>
			<rect x="192.8" y="135.2" class="st2" width="0.4" height="3.9"/>
		</g>
		<g>
			<path class="st2" d="M195.3,126.1l-0.9,0.1l-0.2-2.1c0-0.1,0-0.1,0.1-0.2l0.2-0.1h0.4c0.1,0,0.3,0.1,0.3,0.2L195.3,126.1z"/>
		</g>
		<g>
			<path class="st2" d="M196.2,127.2l-2.3,0.2l-0.2-1.8c0-0.1,0-0.2,0.1-0.3c0.1-0.1,0.1-0.1,0.2-0.1l1.7-0.2c0.1,0,0.2,0,0.2,0.1
				c0.1,0.1,0.1,0.1,0.1,0.2L196.2,127.2z"/>
		</g>
		<g>
			<polygon class="st2" points="195.5,144.4 193.8,126.1 196,125.9 197.8,144.2 			"/>
		</g>
		<g>
			<polygon class="st2" points="196.6,144.2 194.8,126 196,125.9 197.8,144.2 			"/>
		</g>
		<g>
			<polygon class="st2" points="196,126 196,125.8 193.5,125.9 193.5,125.9 193.4,126 193.3,126.2 193.7,131 194,131 194.2,131 
				194.2,129.9 193.9,129.6 193.5,126.5 193.6,126.3 193.7,126.2 			"/>
		</g>
		<g>
			
				<rect x="192.7" y="126.7" transform="matrix(0.9951 -9.933366e-02 9.933366e-02 0.9951 -12.4563 19.8592)" class="st2" width="1.1" height="16.5"/>
		</g>
		<g>
			
				<rect x="193.3" y="126.7" transform="matrix(0.995 -0.1002 0.1002 0.995 -12.5528 20.0731)" class="st2" width="0.5" height="16.5"/>
		</g>
		<g>
			<path class="st2" d="M191.7,122.7c0-0.1,0.6-0.2,0.6-0.1l0.9,5.3L192,128l0.4,3.6h-0.1c0,0,0,0-0.2-0.7c-0.1-0.7-0.5-2.9-0.5-3.3
				C191.6,126,191.7,124.7,191.7,122.7z"/>
		</g>
		<g>
			<polygon class="st2" points="191.9,127.8 193.3,127.6 193.3,127.9 192,128.1 			"/>
		</g>
		<g>
			<polygon class="st2" points="198.9,127.3 195.8,140 194.6,139.8 197.7,126.9 198.4,126.8 			"/>
		</g>
		<g>
			<polygon class="st2" points="198.9,127.3 195.8,140 195.2,139.9 198.4,126.7 			"/>
		</g>
		<g>
			<path class="st2" d="M197.7,126.9l1.3-2.9l-0.1,3.2c-0.1,0.1-0.2,0.3-0.3,0.3c-0.2,0,0-0.5-0.3-0.5c-0.3-0.1-0.4,0.4-0.5,0.4
				C197.7,127.3,197.7,126.9,197.7,126.9z"/>
		</g>
		<g>
			<path class="st2" d="M199,124l-0.1,3.2c-0.1,0.1-0.2,0.3-0.3,0.3c-0.2,0,0-0.5-0.3-0.5l0,0L199,124z"/>
		</g>
		<g>
			<polygon class="st2" points="198.6,124.9 199,124 199,125.1 			"/>
		</g>
		<g>
			<polygon class="st2" points="201.1,128.7 196.1,140.8 194.9,140.4 199.9,128.1 200.6,128.1 			"/>
		</g>
		<g>
			<polygon class="st2" points="201.1,128.7 196.1,140.8 195.5,140.6 200.7,128.1 			"/>
		</g>
		<g>
			<path class="st2" d="M199.9,128.1l1.8-2.6l-0.6,3.2c-0.1,0.1-0.3,0.3-0.4,0.2c-0.2-0.1,0.1-0.5-0.2-0.6c-0.3-0.1-0.4,0.4-0.5,0.3
				C199.9,128.5,199.9,128.1,199.9,128.1z"/>
		</g>
		<g>
			<path class="st2" d="M201.7,125.5l-0.6,3.2c-0.1,0.1-0.3,0.3-0.4,0.2c-0.2-0.1,0.1-0.5-0.2-0.6l0,0L201.7,125.5z"/>
		</g>
		<g>
			<polygon class="st2" points="201.1,126.3 201.7,125.5 201.6,126.5 			"/>
		</g>
		<g>
			<path class="st2" d="M201,131.9v11.5c0,0.5-0.4,0.9-0.8,0.9h-8.1c-0.4,0-0.8-0.4-0.8-0.9v-11.5H201z"/>
		</g>
		<g>
			<rect x="191.3" y="131.9" class="st2" width="9.7" height="4.6"/>
		</g>
		<g>
			<rect x="190.8" y="142.9" class="st2" width="10.6" height="1.8"/>
		</g>
	</g>
	<g>
		<rect x="34" y="144.8" class="st2" width="81.9" height="8.2"/>
	</g>
	<g>
		<rect x="41.6" y="160.2" class="st2" width="4.4" height="85.1"/>
	</g>
	<g>
		<rect x="221.7" y="160.2" class="st2" width="4.4" height="85.1"/>
	</g>
	<g>
		<path class="st2" d="M65.3,62.1c-0.4-0.8-3.6-8.9-4.1-8c-7.2,10.9-4,28.6,4,32.3L65.3,62.1z"/>
	</g>
	<g>
		<path class="st2" d="M98.8,56.3c0.9,0.4,3.7,2.8,4.1,5.9s-4.7,17.2-4.8,16c-0.2-1.1-2.9-20.3-2.8-20.6
			C95.5,57.4,98.8,56.3,98.8,56.3z"/>
	</g>
	<g>
		<path class="st2" d="M74.8,50.3l17.8,3.3c6.6,1.2,6.6,12.1,5.4,21.8c-0.6,4.8,2.1,7.9-1.5,13.7c-2.5,4-12,6.8-17.2,6.2
			c-5.8-0.7-18.7-4.8-18.3-12.9l1.2-23.6C62.8,53,69.1,49.2,74.8,50.3z"/>
	</g>
	<g>
		<path class="st2" d="M97.1,88.3c-0.2,0.3-0.4,0.6-0.5,0.9c-2.5,4-12,6.8-17.2,6.2c-5.8-0.7-18.7-4.8-18.3-12.9l0.1-1.5l0,0
			c0,0,0.4,0.1,1.2-0.6c0.8-0.8,0.7-5.5,0.7-5.5l2.1-0.2c-1,10.1,6.2,15.8,6.6,13.1c0.4-2.6,1.1-5.1,2.7-5.5
			c1.9-0.4,5.1,2.2,7.5,2.8c1.8,0.7,5.5,0.4,6.8,2.3c1.2,1.8-3.2,4.4-2.5,4.8C86.7,92.3,93.9,89.6,97.1,88.3z"/>
	</g>
	<g>
		<path class="st2" d="M65.9,69.8c-2.1-1.1-5.8-3.3-7.7-0.7c-1.9,2.6-0.6,9.7,0.9,10.7c1.5,1.1,4.8,2.2,4.9,0.2
			C64.2,77.9,65.9,69.8,65.9,69.8z"/>
	</g>
	<g>
		<path class="st2" d="M62.8,70.8c0.2-1.1-2.7-1.8-3.5-0.4c-0.8,1.4-0.4,7.6,0.8,8.2c1.2,0.6,2.2,0.9,2.4-0.2s0.1-1.9-0.4-2.8
			c-0.4-0.8-0.3-1.3,0.3-1.6c0.6-0.3,0.8-1.6,0.8-1.6L62.8,70.8z"/>
	</g>
	<g>
		<path class="st2" d="M63.3,67.8c0.9,0.4-0.1,6.7-0.1,7c0,0.4,1.2,0.5,2,0.1c0.8-0.4-0.4-10.7,3.3-16.1s15.8-6.7,15.2-6.8
			s-9.9-5.5-16.4-3.5c-6.5,2-10.6,13.4-8.4,19.9C61.8,66.6,62.4,67.4,63.3,67.8z"/>
	</g>
	<g>
		<path class="st2" d="M75.8,47.4c13.1-5.3,17.3,4.9,31.9,6.6c-1.7,0-5.7,17.1-27.4,6.3C74.8,57.6,63.9,52.3,75.8,47.4z"/>
	</g>
	<g>
		<path class="st2" d="M83.2,72.3c-0.1-0.2-0.5-0.8-1.1-1.1c-3-1.5-11.7-2-14-1.7c-0.3,0-0.4,0-0.4,0.3c-0.1,0.2-0.2,1.4-0.1,1.6
			c0.1,0.2,0.5,0.4,0.9,1c0.6,1.1,0.1,5,1.6,7c1.6,2.1,8.3,2.9,10.4,0.6c1.4-1.5,2.2-3.3,3.1-5c0.4-0.4,0.8-0.4,1.1-0.4
			c0.2,0,0.4,0,0.4,0c0.1,0,0.3,0,0.4,0.1c0.3,0.1,0.6,0.2,1,0.6c0.4,1.8,0.8,3.8,1.8,5.5c1.6,2.7,8.3,3.4,10.3,1.8
			c1.9-1.7,2.3-5.5,3.2-6.4c0.4-0.5,1-0.5,1.1-0.7c0.1-0.2,0.3-1.3,0.3-1.6c0-0.2,0-0.2-0.4-0.3c-2.2-0.8-10.8-2.3-14.1-1.5
			c-0.7,0.2-1.1,0.6-1.3,0.8c-0.3,0.1-0.7,0.1-2-0.1C83.8,72.4,83.3,72.3,83.2,72.3L83.2,72.3z M99.4,73.7L99.4,73.7
			c0,0,0.8,0.2,1.1,1.1c0.3,0.9-0.1,2.9-0.4,3.8c-0.3,1-0.9,2.5-1.6,3.1c-2.1,2.1-8.3,1.1-9.6-1.1c-1-1.7-2.6-6.4,0.1-7.5
			C91.2,72.3,97.3,72.7,99.4,73.7L99.4,73.7z M71,70.5L71,70.5c2.2-0.4,8.3,0.4,10.3,1.8c2.3,1.6-0.2,5.9-1.6,7.3
			c-1.8,1.8-7.9,1.4-9.6-1.1c-0.5-0.8-0.8-2.4-0.9-3.3c-0.1-1,0-3,0.4-3.8C70.2,70.4,71,70.5,71,70.5z"/>
	</g>
	<g>
		<path class="st2" d="M67.9,71.4c0-0.2,0.3-1.8,0.3-1.8L61.5,66l-0.1,1.7l3.5,2.4L67.9,71.4z"/>
	</g>
	<g>
		<path class="st2" d="M76.7,73.1c1,0,1.7,0.9,1.6,2c-0.1,1.1-1,2-1.9,2c-1,0-1.7-0.9-1.6-2C75,74.1,75.8,73.1,76.7,73.1z"/>
	</g>
	<g>
		<path class="st2" d="M93.2,74.8c1,0,1.7,0.9,1.6,2s-1,2-1.9,2c-1,0-1.7-0.9-1.6-2S92.2,74.8,93.2,74.8z"/>
	</g>
	<g>
		<path class="st2" d="M77.4,75.9c0.4,0,0.8-0.4,0.8-0.8c0-0.4-0.4-0.8-0.8-0.8s-0.8,0.4-0.8,0.8C76.6,75.4,76.9,75.9,77.4,75.9z"/>
	</g>
	<g>
		<path class="st2" d="M93.9,77.4c0.4,0,0.8-0.4,0.8-0.8s-0.4-0.8-0.8-0.8s-0.8,0.4-0.8,0.8S93.5,77.4,93.9,77.4z"/>
	</g>
	<g>
		<path class="st2" d="M80.8,67.7c-1.1-0.6-9.9-1.4-9.9,0.4c0,0.9,7.5,0.9,9.2,1.5c1.8,0.6,2.6,0.7,2.2-0.4
			C81.9,68,80.8,67.7,80.8,67.7z"/>
	</g>
	<g>
		<path class="st2" d="M97.4,69.8c-1.2-0.6-9.9-1.4-9.9,0.4c0,0.9,7.5,0.9,9.2,1.5c1.8,0.6,2.6,0.7,2.2-0.4
			C98.6,70.1,97.4,69.8,97.4,69.8z"/>
	</g>
	<g>
		<path class="st2" d="M74.6,51.3c0,0,4.9,5.1,14.5,6c9.7,0.9,14.1-2.1,13.9-1.8c-0.2,0.4-3.4,2.7-3.2,2.7s5.7-3.3,5.5-3
			c-0.3,0.4-1.7,4.4-7.6,6.3C91.9,63.5,81.2,60,77.4,57s-4.1-6.6-4.1-6.6L74.6,51.3z"/>
	</g>
	<g>
		<path class="st2" d="M88.5,84.5c-1.5,1.1-4.7,0.6-5.8-0.9c-1.5-2-0.5-5.5,1.9-8C85,82.4,92.3,81.4,88.5,84.5z"/>
	</g>
	<g>
		<path class="st2" d="M88.8,83.6c-1.5,1.1-4.7,0.6-5.8-0.8c-1.5-1.9-0.5-5.3,1.9-7.7C85.4,81.7,92.7,80.7,88.8,83.6z"/>
	</g>
	<g>
		<g>
			<path class="st3" d="M83.2,89c-0.9,0-1.8-0.1-2.6-0.4c-2.3-0.6-4.8-2.1-4.7-3.9c0-0.2,0.1-0.3,0.3-0.3s0.3,0.1,0.3,0.3
				c-0.1,1.4,2.1,2.8,4.3,3.4c2.1,0.6,3.8,0.4,4.3-0.4c0.1-0.1,0.2-0.2,0.4-0.1c0.1,0.1,0.2,0.3,0.1,0.4C85,88.7,84.1,89,83.2,89z"
				/>
		</g>
	</g>
</g>
<g>
	<rect x="146.6" y="158.2" class="st4" width="9" height="92"/>
	<rect x="146.6" y="160" class="st5" width="4.5" height="90.1"/>
	<rect x="80.8" y="203.5" class="st6" width="5.4" height="34.2"/>
	<rect x="77.3" y="191.8" class="st7" width="12.3" height="14.9"/>
	<rect x="77.3" y="192" class="st8" width="4.8" height="14.6"/>
	<path class="st9" d="M84.4,179.8c19.6,0,35.5,5.4,35.5,12c0,0.7-0.2,1.3-0.5,2h-70c-0.4-0.6-0.5-1.3-0.5-2
		C48.8,185.2,64.8,179.8,84.4,179.8z"/>
	<path class="st10" d="M47.7,189.2h71.5c0.8,0,1.4,0.6,1.4,1.5v1.8c0,0.8-0.6,1.5-1.4,1.5H47.7c-0.8,0-1.4-0.6-1.4-1.5v-1.8
		C46.3,189.9,47,189.2,47.7,189.2z"/>
	<g>
		<rect x="79.9" y="225.8" class="st7" width="7" height="16.2"/>
		<polygon class="st11" points="78.4,238.6 51.8,245.7 51.7,248.8 83.4,244.7 115.2,248.8 114.9,245.7 88.4,238.6 		"/>
		<ellipse class="st12" cx="52.7" cy="247.5" rx="2.6" ry="2.6"/>
		<path class="st12" d="M114.2,250.1c1.4,0,2.6-1.1,2.6-2.6c0-1.4-1.1-2.6-2.6-2.6c-1.4,0-2.6,1.1-2.6,2.6
			C111.7,248.9,112.8,250.1,114.2,250.1z"/>
	</g>
	<path class="st10" d="M42.8,109h44.8c2.3,0,4.2,1.9,4.2,4.3v23.3c0,2.4-1.8,4.3-4.2,4.3H42.8c-2.3,0-4.2-1.9-4.2-4.3v-23.3
		C38.5,110.9,40.5,109,42.8,109z"/>
	<path class="st9" d="M45.9,109h44.8c2.3,0,4.2,1.9,4.2,4.3v23.3c0,2.4-1.8,4.3-4.2,4.3H45.9c-2.3,0-4.2-1.9-4.2-4.3v-23.3
		C41.7,110.9,43.6,109,45.9,109z"/>
	<path class="st13" d="M122.9,235.7c-0.5,1.1-1.9,4.4-1.9,4.4l-0.1,10h5.9l0.1-1.2c0,0,2.9,1.1,4.8,1.1c1.8,0.1,14.1,0.2,15.3-0.7
		c1.1-0.9-2.6-1.9-2.9-2c-0.3-0.2-9.6-2.6-11.9-5.2c-2.2-2.5-2.5-5.4-2.5-5.4L122.9,235.7z"/>
	<path class="st13" d="M92.1,163.1l36.9,13.4c6.1,1.9,9.1,6.2,8.6,12.3c-1.1,14.5-4.7,36.4-6.9,47c-0.3,1.1,1.7,3.4,1.5,4.3
		c-0.2,0.9-11.2,2.1-12.1,2l1.6-51.5c-6.5,0-26.1-4.6-33-6.4C82.6,183.2,87.7,164.3,92.1,163.1z"/>
	<path class="st13" d="M97.5,169c-6.8-4.2-6.9-8.4-7.9-8.4c-1,0-32.7,0.9-32.7,0.9s-3.3,6.8-3.3,13.1c0,6.4,5.2,11,6.1,11.3
		s22,4,25.6,2C89,186,97.5,169,97.5,169z"/>
	<path class="st14" d="M59.4,166.2l45.7,11.4c6.1,1.9,9.1,6.2,8.6,12.3c-1.2,17.3-4.1,29.5-6.3,50.4l-10.5-0.1l1.2-49.9
		c-6.5,0-30.9-2.6-37.8-4.4C47.8,182.7,52.3,163,59.4,166.2z"/>
	<path class="st15" d="M147.1,136.6c0.2,0,1,0.1,1,0.1s6.8,2.9,6.4,3.4c-0.4,0.5-0.9,1-2.9,0.4S147.1,136.6,147.1,136.6z"/>
	<path class="st16" d="M94.3,94.3c-6.7,0.4-11,8.5-7.7,13.6l17.2,26.2l30.9,9c2.5,0.7,6.2-5.4,3.5-6.2l-28.2-9.7
		C107.7,122.9,101,109.6,94.3,94.3z"/>
	<linearGradient id="SVGID_1_" gradientUnits="userSpaceOnUse" x1="46.7325" y1="131.7945" x2="95.4896" y2="131.7945">
		<stop  offset="0.2347" style="stop-color:#D83FFF"/>
		<stop  offset="0.7637" style="stop-color:#55ABFF"/>
	</linearGradient>
	<path class="st17" d="M71.6,85.9c-1.1,0.2-5.8,1.8-7,1.8c-1.1,0-17.9,4-17.9,4c4,18,5.1,68.2,5.1,86c16.5-10.7,45.7-6.2,41.4-15.8
		c-3.8-2.6,5.4-62.3,1.1-67.5c-2.2-2.6-9.5-2.9-13.9-4.3C76,88.7,71.6,85.8,71.6,85.9z"/>
	<path class="st18" d="M65.1,92l-0.5,27.7c0,0,10.6,0.3,10.4-0.1s-0.7-23.7-0.7-23.7L65.1,92z"/>
	<path class="st18" d="M66.9,117.7c-0.4,0.5-2.3,2-2.3,2l0.1,4l1,0.2l0.2-3.4H67l-0.2,3.6l1.3-0.1c0,0-0.1-3.6,0.1-3.6
		c0.2,0,0.9,0.1,0.9,0.1L69,124l1,0.1l0.2-3.8l1,0.1l-0.1,3.9l1.1-0.1l0.1-3.8l1,0.1v3.7l1.1-0.1v-3.6l0.6-0.1L75,124
		c0,0,0.9,0.1,0.9,0s-0.4-4.3-0.4-4.3s-3.1-1.7-3.3-1.8C71.6,117.8,66.9,117.7,66.9,117.7z"/>
	<path class="st19" d="M68.7,74.5c0.2,1.7-0.2,9.3-1.1,10.9c-1,1.6-2.6,2.2-5.5,2.7c-2.8,0.5,4.8,9.1,13.2,9.4
		c11.8,0.5,7.7-6.6,1-10.8c-2-1.2-1.7-11.1-1.7-11.1L68.7,74.5z"/>
	<path class="st20" d="M104.3,145.9c4.2,0,7.6-1.4,7.6-3.1c0-1.7-3.4-3.1-7.6-3.1c-4.2,0-7.6,1.4-7.6,3.1
		C96.6,144.5,100.1,145.9,104.3,145.9z"/>
	<path class="st15" d="M135.2,143.5c2.5,0.1,7.2-0.1,7.4-1.1c0.2-1.1-4.1-1.6-3.7-2.1c1.6-1.9,2.5-1.3,3.5-0.8
		c0.9,0.4,1.7,2,2.6,2.5c1.3,0.5,2.6,0.4,2.3-0.1c-0.3-0.4-3-4.1-3-4.1s3.6,4,4.5,4.1c0.9,0.1,2.5,0.1,2.4-0.4s-4.4-4.3-4.4-4.3
		s4.8,4.1,5.5,4.2s2.7,0.4,2.4-0.4c-0.4-0.7-4.1-4-5.6-4.8c-3.4-2-14.5,0.2-15.8,1.9C132.2,139.8,132.6,143.5,135.2,143.5z"/>
	<path class="st14" d="M99.2,235.8c-0.5,1.1-1.9,4.4-1.9,4.4v9.9h5.5l0.4-1.1c0,0,2.9,1.1,4.8,1.1c1.8,0.1,14.1,0.2,15.3-0.7
		c1.1-0.9-2.6-1.9-2.9-2c-0.3-0.2-9.6-2.6-11.9-5.2c-2.2-2.5-2.5-5.4-2.5-5.4L99.2,235.8z"/>
	<path class="st21" d="M82.7,207.5h0.2c0.5,0,0.9,0.4,0.9,1v15.6c0,0.5-0.4,1-0.9,1h-0.2c-0.5,0-0.9-0.4-0.9-1v-15.6
		C81.8,207.9,82.2,207.5,82.7,207.5z"/>
	<rect x="79.9" y="225.8" class="st8" width="3.3" height="12.9"/>
	<g>
		<g>
			<rect x="119" y="141.9" class="st22" width="1.9" height="0.9"/>
			<rect x="121.7" y="141.9" class="st22" width="1.9" height="0.9"/>
			<rect x="124.5" y="141.8" class="st22" width="1.9" height="0.9"/>
			<rect x="127.2" y="141.8" class="st22" width="1.9" height="0.9"/>
			<rect x="130" y="141.8" class="st22" width="1.9" height="0.9"/>
			<rect x="132.7" y="141.8" class="st22" width="1.9" height="0.9"/>
			<rect x="135.5" y="141.8" class="st22" width="1.9" height="0.9"/>
			<rect x="138.2" y="141.7" class="st22" width="1.9" height="0.9"/>
			<rect x="140.9" y="141.7" class="st22" width="1.9" height="0.9"/>
			<rect x="143.6" y="141.7" class="st22" width="1.9" height="0.9"/>
			<rect x="146.4" y="141.7" class="st22" width="1.9" height="0.9"/>
			<rect x="149.2" y="141.6" class="st22" width="1.9" height="0.9"/>
			<rect x="151.9" y="141.6" class="st22" width="1.9" height="0.9"/>
			<rect x="154.6" y="141.6" class="st22" width="1.9" height="0.9"/>
			<rect x="157.4" y="141.6" class="st22" width="1.9" height="0.9"/>
			<rect x="160.1" y="141.6" class="st22" width="1.9" height="0.9"/>
			<rect x="162.8" y="141.5" class="st22" width="1.9" height="0.9"/>
			<rect x="165.6" y="141.5" class="st22" width="1.9" height="0.9"/>
		</g>
		<rect x="116.9" y="142.3" class="st20" width="52.7" height="1.4"/>
	</g>
	<g>
		<path class="st23" d="M179.8,82.7H113c-2.1,0-3.8,1.8-3.8,4v43.2c0,2.2,1.8,4,3.8,4h66.8c2.1,0,3.8-1.8,3.8-4V86.7
			C183.7,84.5,181.9,82.7,179.8,82.7z"/>
		<path class="st22" d="M181.7,82.7h-66.8c-2.1,0-3.8,1.8-3.8,4v43.2c0,2.2,1.8,4,3.8,4h66.8c2.1,0,3.8-1.8,3.8-4V86.7
			C185.5,84.5,183.9,82.7,181.7,82.7z"/>
		<path class="st24" d="M133.4,94.8h30.9c1.3,0,2.3,1.1,2.3,2.4v22.4c0,1.3-1.1,2.4-2.3,2.4h-30.9c-1.3,0-2.3-1.1-2.3-2.4V97.2
			C131.1,95.9,132.1,94.8,133.4,94.8z"/>
		<path class="st25" d="M134.8,94.8h30.9c1.3,0,2.3,1.1,2.3,2.4v22.4c0,1.3-1.1,2.4-2.3,2.4h-30.9c-1.3,0-2.3-1.1-2.3-2.4V97.2
			C132.5,95.9,133.6,94.8,134.8,94.8z"/>
		<rect x="141.3" y="122.1" class="st26" width="15.1" height="21.7"/>
		<rect x="142.8" y="122.1" class="st27" width="15.1" height="21.7"/>
		<rect x="126.2" y="142.4" class="st26" width="16.6" height="1.3"/>
	</g>
	<rect x="37.8" y="157.4" class="st4" width="9" height="92.8"/>
	<rect x="222.7" y="158.2" class="st4" width="9" height="92"/>
	<rect x="33.7" y="148.4" class="st28" width="197.9" height="11.6"/>
	<rect x="103.2" y="157.4" class="st4" width="9" height="92.8"/>
	<rect x="103.2" y="160" class="st5" width="4.5" height="90.1"/>
	<rect x="33.7" y="148.4" class="st28" width="197.9" height="11.6"/>
	<rect x="33.7" y="148.4" class="st29" width="77.4" height="11.6"/>
	<rect x="29.9" y="143.7" class="st30" width="209.6" height="8.6"/>
	<path class="st31" d="M86.5,90.3c0.4,1.2,3.7,10.4-4,13.1c-7.7,2.7-21.5-9.2-23.9-13.7c-2.4-4.6,6.2-5.2,6.2-5.2s2.4,6.1,10.1,6.8
		c7.8,0.8,6.1-2.7,7.2-3.1C83.4,87.8,86.5,90.3,86.5,90.3z"/>
	<path class="st32" d="M81.3,92.6c3,0,5.5,2.5,5.5,5.6c0,3.1-2.5,5.6-5.5,5.6c-3,0-5.5-2.5-5.5-5.6C75.9,95.1,78.3,92.6,81.3,92.6
		L81.3,92.6z M81.3,94.2c-2.1,0-3.9,1.8-3.9,4c0,2.2,1.8,4,3.9,4c2.1,0,3.9-1.8,3.9-4C85.2,96,83.4,94.2,81.3,94.2z"/>
	<path class="st33" d="M81.3,90.3h14.1v14.9c0,1.4-1.1,2.6-2.5,2.6h-9.1c-1.4,0-2.5-1.1-2.5-2.6L81.3,90.3L81.3,90.3z"/>
	<rect x="81.3" y="96.1" class="st32" width="14.1" height="2.4"/>
	<path class="st34" d="M75.9,95.4c0.5-0.2,0.4,1,0.4,1s3.3-0.5,3.9,0.6c0.6,1.1-0.5,2.6-0.5,2.6s1.1,0.6,0.8,1.5s-0.6,1.2-0.6,1.2
		s0.8,2.4,0.4,3c-0.4,0.5-0.5,0.9-0.5,0.9s0.3,1.2-0.1,1.8c-0.4,0.6-2.5,1.6-4.9,2.1s-5-0.9-5.6-2.4C67,103.2,72.3,96.8,75.9,95.4z"
		/>
	<path class="st35" d="M48.8,91.3c-19.8,1.3-5.6,53.7,2.1,54c7.3,0.4,23.1-31.5,25.3-35.6c0.1-0.2-7.4-4.9-7.5-4.8L51,129.4
		C51.1,123.3,52.3,91.2,48.8,91.3z"/>
	<g>
		<rect x="193.5" y="133.6" class="st36" width="2.1" height="4"/>
		<rect x="192.9" y="133.6" class="st36" width="0.4" height="4"/>
		<path class="st37" d="M195.6,123.9l-0.9,0.1l-0.2-2.2c0-0.1,0-0.2,0.1-0.2l0.2-0.1h0.4c0.1,0,0.3,0.1,0.3,0.3L195.6,123.9z"/>
		<path class="st38" d="M196.4,125.1l-2.3,0.3l-0.2-1.9c0-0.1,0-0.2,0.1-0.3c0.1-0.1,0.1-0.1,0.2-0.1l1.8-0.2c0.1,0,0.2,0,0.2,0.1
			c0.1,0.1,0.1,0.2,0.1,0.3L196.4,125.1z"/>
		<polygon class="st39" points="195.7,143.3 194,124 196.3,123.7 198,143.1 		"/>
		<polygon class="st40" points="196.9,143.2 195,123.9 196.3,123.7 198,143.1 		"/>
		<polygon class="st37" points="196.3,123.9 196.3,123.6 193.7,123.8 193.6,123.8 193.5,123.9 193.5,124.1 194,129.2 194.2,129.2 
			194.4,129.1 194.3,128 194.1,127.6 193.7,124.4 193.8,124.2 193.9,124.1 		"/>
		<polygon class="st41" points="192,124.7 193.1,124.6 194.8,142 193.7,142.1 		"/>
		<polygon class="st42" points="192.6,124.7 193.1,124.6 194.8,142 194.2,142 		"/>
		<path class="st43" d="M191.8,120.4c0-0.2,0.6-0.3,0.6-0.1l0.9,5.5l-1.2,0.1l0.4,3.8h-0.1c-0.1,0,0,0-0.2-0.8
			c-0.1-0.7-0.5-3.1-0.5-3.4C191.8,123.8,191.9,122.4,191.8,120.4z"/>
		<polygon class="st43" points="192,125.7 193.5,125.6 193.5,125.9 192,126 		"/>
		<polygon class="st44" points="199.3,125.2 196.1,138.7 194.8,138.4 197.9,124.9 198.6,124.8 		"/>
		<polygon class="st45" points="199.3,125.2 196.1,138.7 195.5,138.6 198.7,124.6 		"/>
		<path class="st46" d="M197.9,124.9l1.4-3.1l-0.1,3.3c-0.1,0.1-0.2,0.3-0.3,0.3c-0.2,0,0-0.5-0.3-0.6s-0.4,0.4-0.5,0.4
			C197.9,125.2,197.9,124.9,197.9,124.9z"/>
		<path class="st47" d="M199.4,121.8l-0.1,3.3c-0.1,0.1-0.2,0.3-0.3,0.3c-0.2,0,0-0.5-0.3-0.6l0,0L199.4,121.8z"/>
		<polygon class="st48" points="198.9,122.7 199.4,121.8 199.4,122.9 		"/>
		<polygon class="st44" points="201.5,126.6 196.4,139.6 195.1,139.1 200.2,126.1 200.9,126.1 		"/>
		<polygon class="st45" points="201.5,126.6 196.4,139.6 195.7,139.3 201,126 		"/>
		<path class="st46" d="M200.2,126.1l1.8-2.8l-0.6,3.3c-0.1,0.1-0.3,0.3-0.4,0.3c-0.2-0.1,0.1-0.5-0.2-0.6c-0.3-0.1-0.4,0.4-0.6,0.4
			C200.2,126.5,200.2,126.1,200.2,126.1z"/>
		<path class="st47" d="M202.1,123.3l-0.6,3.3c-0.1,0.1-0.3,0.3-0.4,0.3c-0.2-0.1,0.1-0.5-0.2-0.6l0,0L202.1,123.3z"/>
		<polygon class="st48" points="201.6,124.2 202.1,123.3 201.9,124.4 		"/>
		<path class="st49" d="M201.4,130.2v12.1c0,0.5-0.4,1-0.8,1h-8.3c-0.4,0-0.8-0.4-0.8-1v-12.1H201.4z"/>
		<rect x="191.5" y="130.2" class="st50" width="9.9" height="4.8"/>
		<rect x="191" y="141.8" class="st50" width="10.9" height="1.9"/>
	</g>
	<g>
		<path class="st51" d="M211.8,140.6h26.5v2.9h-26.5v-0.4c0.2-0.3,0.3-0.7,0.3-1.1c0-0.4-0.1-0.8-0.3-1.1V140.6z"/>
		<polygon class="st52" points="211.2,140.4 237.9,140.4 238.8,140.4 238.8,141.3 238.8,143.1 238.8,144.1 237.9,144.1 211.2,144.1 
			211.2,143.1 237.9,143.1 237.9,141.3 211.2,141.3 		"/>
		<path class="st51" d="M236.2,136.9h-26.4v2.9h26.5v-0.4c-0.2-0.3-0.3-0.7-0.3-1.1s0.1-0.7,0.3-1.1L236.2,136.9L236.2,136.9z"/>
		<polygon class="st53" points="236.9,136.7 210.1,136.7 209.2,136.7 209.2,137.6 209.2,139.4 209.2,140.4 210.1,140.4 236.9,140.4 
			236.9,139.4 210.1,139.4 210.1,137.6 236.9,137.6 		"/>
		<path class="st51" d="M210.8,129.8h23.8c-0.2,0.9-0.4,2-0.4,3.2s0.1,2.3,0.4,3.2h-23.8C210.8,136.2,210.8,129.8,210.8,129.8z"/>
		<g>
			<path class="st54" d="M234.4,130.5c0,0.1,0,0.2-0.1,0.4h-22.6v-0.4H234.4z"/>
			<path class="st54" d="M234.3,131.6c0,0.1,0,0.2,0,0.4h-22.6v-0.4H234.3z"/>
			<path class="st54" d="M234.3,132.6c0,0.1,0,0.2,0,0.4h-22.5v-0.4H234.3z"/>
			<path class="st54" d="M234.3,133.6c0,0.1,0,0.2,0,0.4h-22.5v-0.4H234.3z"/>
			<path class="st54" d="M234.3,134.7c0,0.1,0,0.2,0,0.4h-22.6v-0.4H234.3z"/>
		</g>
		<polygon class="st55" points="210.3,128.9 211.3,128.9 235.3,128.9 235.3,129.9 211.3,129.9 211.3,135.6 235.3,135.6 235.3,136.7 
			211.3,136.7 210.3,136.7 210.3,135.6 210.3,129.9 		"/>
		<rect x="208.5" y="126.4" class="st56" width="26.2" height="2.6"/>
		<rect x="210.7" y="125.1" class="st57" width="26.2" height="1.2"/>
		<rect x="209.3" y="121.8" class="st58" width="26.2" height="3.3"/>
		<path class="st51" d="M207.5,118.4h26.1v3h-26.1c0.2-0.4,0.3-1,0.3-1.5C207.8,119.3,207.7,118.8,207.5,118.4z"/>
		<polygon class="st59" points="206.5,118 234.1,118 234.1,121.8 206.5,121.8 206.5,121 233.2,121 233.2,118.7 206.5,118.7 		"/>
	</g>
	<rect x="29.9" y="143.7" class="st60" width="84.1" height="8.6"/>
	<rect x="37.8" y="160" class="st5" width="4.5" height="90.1"/>
	<rect x="222.7" y="160" class="st5" width="4.5" height="90.1"/>
	<path class="st14" d="M62,56.2c-0.4-0.8-3.7-9.4-4.3-8.4c-7.4,11.5-4.1,30.3,4,34.2L62,56.2z"/>
	<path class="st14" d="M96.5,50.1c0.9,0.4,3.8,3,4.2,6.2c0.5,3.3-4.8,18.1-5,17c-0.3-1.1-2.9-21.5-2.8-21.8
		C93,51.2,96.5,50.1,96.5,50.1z"/>
	<path class="st34" d="M71.8,43.7l18.3,3.5c6.8,1.3,6.8,12.8,5.5,23.1c-0.6,5.1,2.2,8.4-1.5,14.5c-2.6,4.3-12.3,7.1-17.6,6.5
		c-6-0.7-19.2-5.1-18.7-13.6l1.3-25C59.4,46.6,65.9,42.6,71.8,43.7z"/>
	<path class="st61" d="M94.7,83.9c-0.2,0.4-0.4,0.6-0.5,1c-2.6,4.3-12.3,7.1-17.6,6.5c-6-0.7-19.2-5.1-18.7-13.6l0.1-1.6l0,0
		c0,0,0.4,0.1,1.3-0.7c0.8-0.8,0.7-5.7,0.7-5.7l2.2-0.2c-1.1,10.7,6.3,16.7,6.8,13.8c0.4-2.8,1.1-5.4,2.8-5.7c2-0.4,5.3,2.4,7.7,3
		c1.8,0.7,5.6,0.4,7,2.4c1.2,1.9-3.2,4.7-2.6,5C84.1,88.2,91.4,85.3,94.7,83.9z"/>
	<path class="st34" d="M62.7,64.3c-2.1-1.2-5.9-3.5-7.8-0.8c-1.9,2.7-0.7,10.2,0.9,11.4c1.5,1.2,4.9,2.4,5.1,0.2
		C60.9,72.9,62.7,64.3,62.7,64.3z"/>
	<path class="st62" d="M59.6,65.3c0.2-1.1-2.8-1.9-3.6-0.4c-0.9,1.5-0.4,8,0.8,8.6c1.2,0.7,2.2,1,2.4-0.3c0.2-1.1,0.1-2-0.4-2.9
		s-0.3-1.4,0.3-1.7c0.6-0.4,0.9-1.7,0.9-1.7L59.6,65.3z"/>
	<path class="st14" d="M59.9,62.1c0.9,0.4-0.1,7-0.1,7.5s1.2,0.5,2,0.1s-0.4-11.4,3.4-17.1c3.8-5.7,16.1-7.1,15.7-7.2
		c-0.5-0.1-10.2-5.8-16.8-3.8c-6.7,2.1-10.9,14.1-8.7,21C58.4,61,59.1,61.8,59.9,62.1z"/>
	<path class="st14" d="M72.8,40.7c13.5-5.6,17.8,5.3,32.8,7c-1.8,0-5.9,18.1-28.1,6.7C71.8,51.5,60.6,45.8,72.8,40.7z"/>
	<path class="st14" d="M80.4,67c-0.1-0.2-0.5-0.8-1.1-1.1c-3.1-1.6-12-2.1-14.4-1.8c-0.4,0-0.4,0-0.4,0.3c-0.1,0.2-0.2,1.5-0.1,1.7
		c0.1,0.2,0.5,0.4,0.9,1c0.6,1.2,0.1,5.3,1.7,7.4c1.6,2.2,8.5,3.1,10.6,0.6c1.4-1.6,2.3-3.5,3.2-5.3c0.4-0.4,0.8-0.4,1.1-0.4
		c0.2,0,0.4,0,0.4,0s0.3,0,0.4,0.1c0.4,0.1,0.6,0.2,1,0.6c0.4,1.9,0.9,4,1.9,5.9c1.6,2.9,8.5,3.6,10.6,1.8c1.9-1.8,2.4-5.8,3.3-6.9
		c0.4-0.6,1-0.6,1.1-0.8c0.1-0.2,0.3-1.4,0.3-1.7c0-0.2,0-0.2-0.4-0.4c-2.3-0.9-11.1-2.4-14.4-1.6c-0.7,0.2-1.2,0.7-1.4,0.9
		c-0.3,0.1-0.7,0.1-2.1-0.1C81.1,67.1,80.6,67.1,80.4,67L80.4,67z M97.1,68.5L97.1,68.5c0,0,0.8,0.2,1.1,1.1c0.3,1-0.2,3-0.4,4
		c-0.3,1-0.9,2.6-1.6,3.3c-2.2,2.2-8.4,1.2-9.9-1.1c-1.1-1.8-2.6-6.9,0.1-7.9C88.6,67,95,67.4,97.1,68.5L97.1,68.5z M67.9,65
		L67.9,65c2.3-0.5,8.5,0.4,10.6,1.9c2.4,1.7-0.2,6.2-1.6,7.7c-1.8,1.9-8.2,1.5-9.9-1.2c-0.5-0.9-0.8-2.6-0.9-3.6
		c-0.1-1.1,0-3.2,0.4-4C67.2,65,67.9,65,67.9,65z"/>
	<path class="st14" d="M64.8,66c0-0.2,0.3-1.9,0.3-1.9l-6.9-3.7l-0.1,1.8l3.6,2.6L64.8,66z"/>
	<path class="st14" d="M73.8,67.9c1,0,1.8,1,1.7,2.1c-0.1,1.1-1,2.1-1.9,2.1c-1,0-1.8-1-1.7-2.1S72.9,67.9,73.8,67.9z"/>
	<path class="st14" d="M90.7,69.7c1,0,1.8,1,1.7,2.1s-1,2.1-1.9,2.1c-1,0-1.8-1-1.7-2.1C88.9,70.6,89.8,69.7,90.7,69.7z"/>
	<path class="st63" d="M74.5,70.8c0.4,0,0.8-0.4,0.8-0.9c0-0.4-0.4-0.9-0.8-0.9s-0.8,0.4-0.8,0.9C73.7,70.3,74,70.8,74.5,70.8z"/>
	<path class="st63" d="M91.4,72.4c0.4,0,0.8-0.4,0.8-0.9c0-0.4-0.4-0.9-0.8-0.9c-0.4,0-0.8,0.4-0.8,0.9
		C90.6,72.1,90.9,72.4,91.4,72.4z"/>
	<path class="st14" d="M78,62.1c-1.2-0.7-10.2-1.5-10.2,0.4c0,0.9,7.7,1,9.4,1.6c1.8,0.6,2.6,0.8,2.3-0.4C79.1,62.5,78,62.1,78,62.1
		z"/>
	<path class="st14" d="M95.1,64.3c-1.2-0.7-10.2-1.5-10.2,0.4c0,0.9,7.7,1,9.4,1.6c1.8,0.6,2.6,0.8,2.3-0.4
		C96.2,64.7,95.1,64.3,95.1,64.3z"/>
	<path class="st64" d="M71.6,44.8c0,0,5,5.4,15,6.3c9.9,1,14.5-2.2,14.3-1.8c-0.2,0.4-3.5,2.9-3.3,2.9c0.3,0,5.8-3.5,5.5-3.2
		c-0.3,0.4-1.7,4.7-7.7,6.7c-6.1,1.9-16.9-1.8-20.9-4.9c-4-3.2-4.3-7-4.3-7L71.6,44.8z"/>
	<path class="st65" d="M85.8,79.9c-1.6,1.2-4.8,0.6-6-0.9c-1.6-2.1-0.6-5.9,1.9-8.4C82.3,77.6,89.9,76.7,85.8,79.9z"/>
	<path class="st66" d="M86.2,79c-1.6,1.1-4.8,0.6-6-0.9c-1.6-2-0.6-5.6,1.9-8.1C82.6,76.9,90.2,75.9,86.2,79z"/>
	<g>
		<path class="st67" d="M80.4,84.7c-0.9,0-1.8-0.1-2.7-0.4c-2.4-0.7-4.8-2.3-4.8-4.1c0-0.2,0.1-0.3,0.3-0.3s0.3,0.1,0.3,0.3
			c-0.1,1.5,2.2,3,4.4,3.6c2.1,0.6,4,0.4,4.4-0.4c0.1-0.1,0.3-0.2,0.4-0.1c0.1,0.1,0.2,0.3,0.1,0.4C82.3,84.3,81.4,84.7,80.4,84.7z"
			/>
	</g>
</g>
<g>
	<path class="st68" d="M-125.4,109.9c-0.7,3.1-1.7,6-3.2,8.7c0-2,0.4-3.9,1.4-5.7c-0.1-0.6-0.2-1.1-0.5-1.6
		C-126.9,111.3-126.1,110.8-125.4,109.9z"/>
</g>
<g>
	<path class="st69" d="M-130,120.4c0.3,0,0.6,0,0.9,0c-0.5,2.3-1.2,4.6-2.1,6.8c-0.2,0.3-0.4,0.4-0.7,0.5
		C-131.7,124.8-131.1,122.4-130,120.4z"/>
</g>
<g>
	<path class="st70" d="M-157.3,154.6c0.7-0.3,1.5-0.4,2.3-0.5c-0.2,0.6,0.1,1.1,0.9,1.6c1,1,2.1,1.7,3.4,2.1c9.7,0,19.5,0,29.4,0
		c0,0.2,0,0.3,0,0.5c-1.3-0.1-2.5,0-3.6,0.5c-8.8,0.1-17.6,0-26.4-0.2C-153.6,157.4-155.5,156.1-157.3,154.6z"/>
</g>
</svg>
